<?xml version="1.0" encoding="utf-8"?>
<!-- Generator: Adobe Illustrator 24.0.3, SVG Export Plug-In . SVG Version: 6.00 Build 0)  -->
<svg version="1.1" id="Ebene_1" xmlns="http://www.w3.org/2000/svg" xmlns:xlink="http://www.w3.org/1999/xlink" x="0px" y="0px"
	 viewBox="0 0 196.6 58.6" style="enable-background:new 0 0 196.6 58.6;" xml:space="preserve">
<style type="text/css">
	.st0{fill:#CC092A;}
	.st1{fill:#FFFFFF;}
</style>
<g>
	<g>
		<path class="st0" d="M10,43.5h0.2v-0.3H10l-0.1,0.1L10,43.5z M11.4,46.2v0.2l0.4,0.1l0.2-0.3H11.4z M10.9,46.8h0.2v-0.2H11
			L10.9,46.8z M11.4,53.9l0.1-0.2l-0.3-0.3v0.2v0.2L11.4,53.9z M7.4,56.1h0.2v0.3H7.4V56.1z M7.8,55H7.6v-0.2h0.2
			C7.8,54.8,7.8,55,7.8,55z M7.9,54.4h0.2l0.2,0.3l0.2-0.1L9,54.3v0.6l-1-0.2L7.9,54.4z M8.8,55.4l0.4,0.1h0.2v0.2L9.7,56v0.3
			l-0.2,0.1l-0.1,0.2L9.3,56l-0.1-0.2H9v-0.2L8.8,55.4z M9.2,56.9v-0.2v-0.2h0.2l0.3,0.2v0.4l-0.4-0.3L9.2,56.9z M10.1,56.3L9.9,56
			H10h0.3l0.1,0.2l0.2-0.1l0.4-0.5h-0.8l-0.1-0.4l-0.4,0.2l-0.1-0.2L9.7,55H10v0.3l0.2-0.1l0.4-0.3v-0.2l1,0.5l0,0.8l-0.4,0.4
			l0.1,0.4L10.9,57v0.3l0.1,0.2l-0.1,0.2l-0.2-0.3l0.3-1l-0.2,0.1h-0.3L10.1,56.3z M11.6,54.4l0.2,0.5l-0.2-0.1l-0.8-0.6h-0.2
			l-0.2,0.3L10.1,54l0.2-0.2l0.1,0.3l0.2-0.1l0.2-0.3l-0.1-0.4L10.4,53l-0.1,0.2l-0.1,0.5L10,53.9l-0.2-0.5l0.1-0.3l-0.2-0.4v-0.2
			H10l0.2,0.3l0.2,0.1v-0.5l0.3-0.1l0.1,0.2l-0.2,0.3v0.3L11,53l0.1-0.1l0.3,0.4l0.3,0.2l0.1-0.4h-0.2l-0.4-0.4l-0.1-0.3l0.1-0.5
			h0.2l0.2,0.2l-0.1,0.5l0.3,0.1L12,53l0.1,0.4L11.6,54.4z M11.9,56.7h0.2V57h-0.2V56.7z M12.5,56.4l-0.3,0.2l0.1-0.2l0.2-0.3
			l-0.2-0.3l0.1-0.1l0.5-0.5h0.2v0.7L12.8,56l-0.3,0.3V56.4z M13.2,54.5l-0.9-0.2l0.1-0.2l0.1-0.2l0.7-0.1l0.1,0.4L13.2,54.5z
			 M13.2,55l0.1-0.4l0.2-0.3l0.4-0.2h0.5v0.2l-0.3,0.4l-0.4-0.1L13.4,55l-0.1,0.4L13.2,55z M13.4,55.8l0.1-0.2h0.2L13.4,55.8z
			 M13.5,57.3l0.1-0.2l0.1,0.2H13.5z M13.1,52.8v-0.3l0.1-0.4l0.3-0.2h0.2l-0.2,0.5l0.1,0.3h-0.5V52.8z M13.1,53.5l0.1,0.2l-0.1-0.1
			L13,53.2l0.2,0.1L13.1,53.5z M13,53.1l-0.7-0.4v-0.3v-0.2l0.3-0.1L13,53.1z M11,50.2h0.3v0.2l-0.2-0.1L11,50.2z M10.4,48.3
			l0.1-0.3l0.1,0.1l0.1,0.4L10.4,48.3z M10.3,50.9l0.1,0.1v0.2h-0.1L10.2,51L10.3,50.9z M10.2,48.9v-0.4l0.2,0.1l0.2,0.3l-0.1,0.2
			h-0.4L10.2,48.9z M10.5,44.1h0.2l-0.1,0.2h-0.2L10.5,44.1z M10.8,48.7l0.1-0.3l0.4-0.4v-0.2l-0.1-0.2l-0.3-0.1l0.1-0.3h-0.1
			l-0.1,0.1v0.2l-0.2,0.1l-0.5-0.2v-0.2l0.5-0.4l-0.1-0.2l0.2-0.5h-0.1l-0.4,0.4H10v-0.2l0.4-0.1l-0.1-0.1l0.1-0.5l-0.1-0.2l0.5-0.3
			l-0.5-0.6h-0.2L10,44.9l-0.1,0.6l-0.1,0.1l-0.2-0.1l-0.2-0.3l0.6-0.4v-0.5l1.6,0.3v0.3l-0.3,0.5l-0.1-0.1v-0.2l-0.1,0.3l0.3,0.2
			h0.2l0.2-0.3l0.3,0.2l0.2-0.1v-0.2l-0.4-0.1v-0.2l0.1-0.3l0.3,0.3l0.2-0.2l-0.8-0.8L11.3,44l-0.1-0.5L10.7,44v-0.2l-0.3,0.3h-0.2
			L10,43.7l-0.1-0.1H9.6l-0.1-0.3l-0.1-0.1l0.1-0.1h0.4L10,43v-0.5l0.6-0.1v-0.3L10.4,42v-0.2h0.1l0.3,0.2l0.2-0.1l-0.2-0.5l0.2,0.1
			l0.4-0.1l0.2-0.2V41H12l-0.3,0.5L11.2,42l-0.1,0.4l0.1,0.1h0.4l-0.2,0.4l-0.2-0.1l-0.4,0.1l-0.1,0.3l0.1,0.2l0.4,0.2l0.3-0.3h0.2
			l0.1,0.3v0.5l0.3-0.1v-0.3l0.1-0.2l0.8,0.4l0.3-0.2l0.5,0.4l-0.1,0.2l-0.5,0.2v-0.4l-0.6,0.2l-0.1-0.2l0.2,0.7l-0.1,0.3l0.1,0.2
			h0.2l-0.3,0.5l-0.1,0.4l0.1,0.5l-0.6,0h-0.4l0.1,0.2l-0.5,0.3v0.2l0.3,0.1l0.2-0.3l1-0.3l0.1,0.2l-0.2,0.6l-0.2-0.3h-0.2l0.1,0.4
			L11.9,48l-0.1,0.2l-0.1-0.1l-0.3,0.2l0.1,0.2l0.7-0.2l0.1,0.2l0.2-0.4l0.4-0.1l0.1,0.2l-0.4,0.3h-0.2l0.1,0.2h0.2l0.1,0.4h-0.3
			L12,49l-0.4,0.1l0.1-0.2l-0.1-0.1L10.8,48.7z M13,46.1l0.1-0.1h0.1v0.2H13V46.1z M12.9,49v-0.2l0.1-0.2l0.7,0.5l-0.1,0.2l-0.4,0.1
			L12.9,49z M13.5,45.9h-0.2l0.1-0.2h0.1L13.5,45.9z M13.7,48.1l-0.1,0.2l-0.2-0.1V48L13.7,48.1L13.7,48.1z M13.7,45.3l-0.1-0.2
			v-0.6h0.2l0.1,0.3L13.7,45.3z M13.8,43.3l-0.2,0.2v-0.2H13.8z M13.6,41.9h-0.2v-0.2h0.2V41.9z M13.2,32.1l0.1-0.2l0.3-0.2v0.2
			L13.2,32.1z M13.6,30v-0.2l0.1-0.1l0.1,0.1V30H13.6z M13.3,28.9L13,29v-0.3h0.2L13.3,28.9z M12.9,29l0.2,0.3v0.3l-0.6,0.3
			l-0.4,0.8l-0.2-0.1l-0.2-0.3V30l0.3-0.2l0.2,0.1v-0.2l0.3-0.6L12.9,29z M10.6,30.2l0.1,0.1v0.4h-0.1V30.2z M10.6,32l0.2-0.8h0.3
			l0.1,0.2l0.3,0.2v0.2l-0.2,0.1h-0.4l0.2,0.5L11,32.7l-0.1-0.2L10.6,32z M10.4,33.5l0.2,0.5h-0.2l-0.3,0.3l-0.3,0.5l-0.2-0.3
			l0.1-0.2v-0.2l-0.2-0.8l0.2,0.1l0.2,0.3l0.1-0.4L10.4,33.5z M10.3,33.1L10.2,33v-0.2L10.3,33.1z M10.3,29.4h-0.1v-0.1l0.1-0.1
			V29.4z M9.8,32.3l0.2,0.1l0.2,0.4l-0.1,0.1L9.7,33v-0.2L9.8,32.3z M9.8,31.7l0.3,0.1V32H9.4l0.1-0.2L9.8,31.7z M9.6,31l-0.1,0.2
			l-0.2-0.3H9l0.1-0.1l0.1-0.2L9.6,31z M9.1,35l0.1-0.1h0.3l0.1,0.3v0.2l-0.5-0.2L9.1,35z M9.2,36.1l0.1-0.2h0.2l-0.1,0.3l-0.2,0.1
			V36.1z M9.4,37v-0.2l0.2,0.3l-0.1,0.1L9.4,37z M11.4,40.1l-0.3,0.2v-0.2H11.4z M11.2,38.7l-0.1-0.2l-0.3-1.2l0.2,0.1l0.1,0.2v0.3
			l0.5-0.2l0.7,0.6v0.2l-0.4-0.1L11.2,38.7z M12.1,40L12,39.8h-0.2l0.1-0.2l0.1-0.4l0.1-0.2l0.1,0.1L12.1,40z M12.9,43.2l-0.2-0.1
			L12.1,43l-0.3-0.3l-0.1-0.3l0.3,0.2l0.6,0.2L12.9,43.2z M13,41.9l-0.4,0.4l-0.3-0.2l-0.2-0.7l0.1-0.1l0.3-0.1l0.1,0.6l0.1,0.1H13z
			 M13.3,39.1v0.4L13,39.7l0.1-0.2L13.3,39.1z M13.2,37.5l-0.1,0.2l-0.4-0.1v-0.3L12.5,37l-0.4,0l0.1-0.3l-0.1-0.2l-0.3-0.3L11.7,36
			l0.7,0.2v0.3l0.1,0.4L13.2,37.5z M11.9,35.2h0.2l0.2,0.4h-0.1L12,35.5l-0.2-0.4L11.9,35.2z M11.6,36.7l0.2,0.3v0.2l-0.1,0.2h-0.1
			l-0.1-0.2v-0.5H11.6z M11.2,34.6l0.4,0.1V35l-0.3,0.2l0.1,0.6L11,36.2h-0.2v-0.3L11.2,34.6z M10.1,35.3v-0.4l0.1-0.1l0.4-0.5
			l0.1,0.2v0.3L10.4,35L10.1,35.3z M10.5,38.4h-0.4v-0.2l0.1-0.2h0.2L10.5,38.4z M10.8,39.4h-0.1v-0.2h0.1V39.4z M10.5,37.1
			l-0.2,0.1v-0.3l0.2-0.6l0.4,0.1l-0.1,0.8L10.5,37.1z M11.3,29.8L11,30.1h-0.2l0.1-0.2L11.3,29.8v-0.3l0.1,0.1L11.3,29.8z
			 M11.5,30.6l0.1,0.4l-0.1,0.2h-0.2V31l-0.1-0.5v-0.2L11.5,30.6z M11.9,32.1v-0.2l0.1,0.3L11.9,32.1z M12.6,32.6v0.3h-0.4l-0.1-0.3
			l0.2-0.1L12.6,32.6z M12.4,31.5L12.4,31.5h0.3v0.3h-0.2L12.4,31.5z M12.6,33.5l0.3,0.3l0.1,0.4v0.6L12.9,35l-0.8-0.2l-0.7-0.3
			l0.1-0.3L11.2,34l-0.4-0.2l0.1-0.2l0.5-0.1l0.2-0.3H12l0.1,0.2l0.1,0.2l-0.4,0.3v0.3l0.4,0.4h0.2l0.2-0.4V34l-0.1-0.1v-0.3
			l0.3-0.2L12.6,33.5z M9.8,42.4l-0.1-0.2V42L9.8,42.4z M9.8,40.9h0.4l0.1-0.1l0.1-0.3h0.2l0.5,0.3L11,41h-0.5l-0.3,0.3l-0.6-0.2
			L9.8,40.9z M9.6,43l-0.2-0.1v-0.3l0.2,0.1V43z M9.5,40.9L9.3,41v-0.2l0.2-0.2V40.9z M9.2,41.8l0.2,0.1l-0.2,0.3H9V42L9.2,41.8z
			 M9.1,43.5v-0.2v-0.2l0.1,0.3L9.1,43.5z M9,43.9v-0.2h0.3L9,43.9z M9.6,54.5l0.1,0.4l-0.3-0.1l0.1-0.1L9.6,54.5L9.6,54.5z
			 M15.1,55h0.1v0.2h-0.1V55z M5.1,56.5L5.1,56.5v0.6h0.2l0.1-0.2l0.1-0.1L6,58.6h0.8l0.7-0.2L8,58.6l1.2-0.3l0.8-0.2h3.2l0.4,0.4
			l0.8,0.1v-0.4l0.1-0.2l1,0.1l0.8-0.1l0.6-0.5l0.2-0.4h0.2l0.2-0.3l-0.6-0.7l0.4-0.5h0.2v-0.2l-0.1-0.1v-0.2l0.3-0.5h-0.4l-0.2-0.5
			v-0.4h-0.2l-0.1-0.4h-0.1l-0.3,0.2l-0.8,0.2l-0.7-0.2v0.2h-0.7l-0.8,0.2l-0.1-0.3l0.6-0.1l0.3-0.2l0.2-0.4l-0.4-1v-0.6l-0.8,0.2
			H13l0.1-0.4v-0.2L12.9,51l-0.3,0v0.4h-0.3l0.1,0.4v0.3l-0.2,0.1l-0.4-0.9l-0.6-0.1L11.1,51l0.8-0.6l-0.1,0.7h0.4l0.1-0.2V51
			l-0.2-0.3l0.2-0.2l0.2,0.1l-0.1-0.5l-0.2-0.3l-0.8-0.1l-0.1-0.3l0.4-0.5l0.1,0.3l0.3,0.2h0.6l0.2-0.1v0.1l0.1,0.1l0.6,0.2l0.1,0.4
			l-1.2-0.6V50l0.2,0.2v0.2l0.1,0.4l0.4-0.1l0.8,0.1l0.3-0.3L14,50.2l0.2-0.2v-0.2l-0.4-0.7l0.1-0.1l0.1-0.5l0.1-0.1L14,48.1
			l0.2-1.1L14,46.7l0.4-0.2l0.1-0.5l-0.1-1.3l0.1-0.9l0.2-0.7v-0.4L14.4,42l-0.1-0.9v-0.8L14,39.7l0.2-0.5l-0.8-1l0.7-0.9l0.1-0.4
			l-0.4-0.6l0.2-0.1l0.2-0.3v-2l-0.1-0.7L14,33.1v0.2l0.1,0.4L14,33.8l-0.3-0.3v-0.3l0.3-0.3h0.2v-0.2L14,32.1l0.2-0.6v-0.9L14.1,29
			l0.1-0.8l0.2-0.1l0.1-0.4L13.8,28l0.1,0.4h-0.2l-0.2-0.3v-0.2L8.7,28l0,0l-0.2,0.4l0.1,0.5l0.3,0.3l-0.2,0.3l0.1,0.7L8.6,30v0.2
			l0.1,0.3l-0.1,0.4v1.3l0.2,1.7v0.5l0.1,0.2l-0.2,0.6l0.1,2.5H9h0.2l0.2-0.3l0.2-0.1v0.2l0.1,0.1L9.6,38H9.5l-0.1-0.2l-0.6,1.6
			l0.1,1.2l-0.1,0.8L9,42.2l-0.2,0.6l0.3,0.8V44l-0.2,0.6l0.3,2.5l-0.3,0.7l0.2,1l-0.2,0.6L9,50.2V51l0.3-0.2L9.5,51l-0.7,0.7
			L8.5,52h0.2L9,52.2h0.2l0.6-0.4v0.3l-0.5,0.6H9.1l-0.2-0.2v0.6l0.2,0.1v0.2l0.1,0.4L9.3,54l0.1,0.4l-0.3-0.1l-0.2-0.5l-0.8,0.4
			l-0.3-0.3l-0.2-0.1L6.4,54l-0.6,0.4l-0.2,0.4L5.7,56v0.4l-0.3,0.4L5.1,56.5z"/>
		<path class="st0" d="M20.2,11.2v0.3h-0.3h-0.3l-0.1,0.1v-0.3l0.4-0.2L20.2,11.2z M16.9,6l-0.4-0.2l0.2-0.2v0.2L17,5.7v0.2L16.9,6z
			 M16.7,10.3l-0.1,0.1L16.7,10.3v0.3h-0.3v-0.3H16.7z M18.2,4.6l0.1,0.1l0.1,0.1L18.3,5L18.2,4.6z M16.1,8.1l-0.3,0.6L15.6,9
			l-0.1-0.1V8.3h0.3l0.1-0.1L16.1,8.1z M15.2,12.7l0.3,0.1l0.1-0.2l0.3,0.3L15,13.3l-0.3-0.1l0.5-0.2L15.2,12.7z M14.8,11.7L14.7,12
			l-0.5,0.2l0.3-0.7L14.8,11.7z M14.7,9h-0.3l-0.1-0.1l0.3-0.3l0.1,0.1V9z M14.4,7.5L14.4,7.5l-0.5,0.2L14,7.6L14.4,7.5z M13.9,8.5
			L14,8.3v0.3h-0.3h-0.3l0.1-0.1H13.9z M13.3,11.1l0.3,0.1l-0.4,0.2l-0.3-0.1L13,11l-0.2-0.4l0.3,0.1L13.3,11.1z M12.8,12.2l0.1,0.4
			l-0.2,0.6l-0.4,0.2l0.1-0.3L12,13.4v-0.6l0.3-0.3l-0.2-0.4L11.8,12l0.4-0.2l0.1-0.3l0.2,0.4L12.8,12.2z M12.5,10.5l-0.1,0.3
			l-0.5-0.6l0.3,0.1L12.5,10.5z M11.5,12.6l0.4-0.3v0.2l-0.1,0.3h-0.6l0.2-0.5L11.5,12.6z M11.3,11.6L11,12.1l0.2,0.4l-0.3-0.1
			l-0.3-0.1l-0.2-0.4L10,12.3v-0.7l0.4-0.2l0.3,0.1l0.4-0.2L11.3,11.6z M11,10.8L10.6,11l-0.4,0.2l-0.1,0.3L10,11l0.5-0.4l0.4-0.2
			L11,10.8z M9.6,14.8l0.4,0.5l-0.4,0.2l0,0l-0.3,0.2l0.1-0.2H8.7l-0.1,0.2L8.1,16l0.1-0.1L8,15.6l0.1-0.1L8,15.1L8.4,15l1,0.1
			L9.6,14.8z M7.7,19l0.4-0.2l0.1-0.3l0.2,0.4L8,19.1l-0.4,0.2L7.7,19z M9.1,16.3l0.2-0.4l0.2,0.5l-0.1,0.3v0.1l0,0L9.1,16.3z
			 M9.9,16.5l0.2-0.6h0.1l0.4-0.3l-0.1,0.1L10.4,16h0.1l0.2,0.4l-0.4,0.2L9.9,16.5z M10.7,16.2l0.4-0.2l0.1-0.3l0.4-0.2l-0.1,1
			l-0.3,0.6H11L10.7,16.2z M11.9,16.8l0.1-0.3l0.2-0.5l-0.1-0.4l0.1-0.3l0.9,0.1l0.1-0.3l0.1,0.4l-0.9,0.7h0.3L13,16h0.1l0.1,0.3
			l-0.3,0.2l0.3,0.1l0.4-0.1L13.4,17l-0.3-0.1L13,17.1l0.2,0.2l-0.4,0.1l-0.4,0.1l-0.3-0.7L11.9,16.8z M13.5,17.3h0.3l0.1-0.1
			l0.2,0.3l-0.4,0.2L13.5,17.3z M13.5,17.9l0.4-0.2L13.8,18l0.2-0.3l0.1,0.4l-0.4,0.2L13.5,17.9z M14.3,15.4v0.7L14.1,16l-0.3-0.1
			l-0.2-0.4l1-0.6l0.2,0.4l-0.1,0.3L14.3,15.4z M13.7,13.6l0.3-0.4v0.4L13.4,14l-0.1-0.4H13.7z M13,11.8l0.5,0.2v1l-0.4-0.5L13,11.8
			z M13.1,14.5l0.3-0.2l0.3,0.1l-0.4,0.2l-0.4,0.5v-0.2L13.1,14.5z M12.9,14.1L12.6,14l0.1-0.8l0.5,0.2l0.1,0.4l0,0l-0.5-0.2
			l0.4,0.5L12.9,14.1z M14.2,13.9l0.3,0.1l0.4-0.2l-0.2,0.6l-0.5,0.4h-0.7l0.5-0.4l0.1-0.3h-0.7l0.5-0.4l0.4-0.2L14.2,13.9z
			 M14.2,16.7L14,16.3l0.3,0.1l0.4-0.2l0.3,0.1l0.3,0.1l0.2,0.4h-0.4l-0.2-0.3l-0.3,0.2H14.2z M15.6,18.7l0.1-0.2l0.2-0.1l0,0
			l-0.1,0.2L15.6,18.7z M16.9,18.8l0.3-0.1l0.1,0.2l-0.2-0.1v0.1L16.9,18.8z M17.3,18.1l0.1-0.2L17.3,18.1l-0.1-0.3l0.3-0.1l0.1,0.3
			L17.3,18.1z M17.8,16.5h-0.3l0.1-0.1h0.3l0.1-0.1v0.3L17.8,16.5z M4.8,16.8l-0.1,0.1l-0.2-0.4l0.1,0.1L4.8,16.8z M15.7,23l0.1-0.2
			l0.3-0.1L15.9,23L15.7,23z M18.4,16.7l0.3-0.3l0.1,0.1v0.3h-0.3L18.4,16.7z M20.6,18.2h0.3l-0.1,0.1l0.2-0.1v0.2h-0.3L20.6,18.2z
			 M21.1,17.4l0.2,0.1l0.1-0.1l0.1,0.2h-0.3L21.1,17.4z M22.2,18.2l0.1-0.1h0.3l-0.1,0.1H22.2L22.2,18.2z M23.4,10.1L17,10.4
			l0.2-0.6h-0.3V9.6l0.2,0.1l0.1-0.1l0.1,0.2l0.1-0.4h-0.2L17,9.2V8.9L17.1,9h0.3l0,0l0.1-0.2l-0.1-0.1V8.4h0.2l0.1-0.3l0,0h-0.2
			l0,0l0,0l0.1-0.2h0.2l0.1-0.2h-0.1l0,0l0,0l0,0h0.1l0,0l0.2-0.1l0.2-0.8l0,0l0.1-0.5l0,0L19.5,2l-2.9,3l0,0h0.3l-0.1,0V4.8L17,4.9
			v0.3l0.1,0.1h-0.3l-0.1-0.1l-0.1,0.1v0.3l-0.1-0.1l-0.1-0.1V5.1h-0.1l-2,2.1l0,0l-0.1,0.1h-0.1l-2,2l-1.4-1.9h-0.5l0.3-0.3
			l-0.3-0.4h-0.1l0.1-0.1L5.1,0l2.1,12.1l-4.7,3.3v0.2H2.2H2.1L0,17.1l2.9,0.3l0,0l-0.1-0.1V17l-0.4,0.2l0.1-0.4h0.3l0.1,0.1h0.3
			L3.3,17v-0.2l0.1,0.1v0.3l0.1,0.1H3.2l-0.1-0.1H3v0.2l2.6,0.3l0,0l0,0l1.6,0.2L6,24.4l5.5-4l6.3,7.6l-2.5-9.2l3.5,0.3l0.5-0.2
			l-0.1,0.2h0.4l0-0.1l0.3-0.1L20,19l-0.1,0.3h0.5v-0.1l0.3-0.1L21,19l-0.1,0.2l-0.3,0.1l0,0l5.6,0.5l-4.3-2.4v0.1l-0.2-0.1
			l-0.1-0.2h-0.1h-0.2L21.1,17v-0.1l-0.1,0l0,0l0,0l-0.1-0.1l0,0L21,17h-0.3h-0.3v-0.6l0,0H20l-0.1,0.1l-0.3,0.3l-0.1-0.1v-0.6l0,0
			l-1.2-0.7L18,15.6l0.1-0.1h0.1l-2.4-1.3L23.4,10.1z"/>
		<path class="st1" d="M10.9,24.9L10.9,24.9l0.1-0.1L10.9,24.9L10.9,24.9z M10.3,19.2L10.3,19.2l-0.1,0.1L10.3,19.2z M12.2,24.2
			L12.2,24.2L12.2,24.2L12.2,24.2z M11.5,27.4L11.5,27.4L11.5,27.4L11.5,27.4L11.5,27.4z M12.1,16.6v-0.1h0.1L12.1,16.6L12.1,16.6z
			 M12.2,26.9v-0.2h0.1l0.1,0.1L12.2,26.9L12.2,26.9z M12.6,29.1v-0.7v-2l0.1-0.9l-0.1-0.2l-0.1-0.7v-2l0.1-0.4l-0.1-0.7l0.1-1.4
			l-0.1-0.9l0.1-1.9l-0.1-0.9l0.1-0.4l-0.1-0.4l-0.1-0.9l-0.2-0.2l-0.4-0.2h-0.2l-0.4,0.1l-0.4,0.2L10.5,15l-0.1,0.7l0.1,0.5
			l-0.1,0.3l0.1,0.3v0.3l-0.1,0.5l-0.1,0.2l0.3,0.8l-0.1,0.6v0.9l-0.1,0.4l0.1,0.4l-0.1,0.2l0.1,0.3l-0.1,0.2V22l0.1,0.2v0.3
			l0.1,0.4l-0.2,0.9l0.1,0.4v0.2l0.1,0.4l-0.1,1.8l-0.1,0.2l0.1,0.1l0.1,0.4l-0.1,0.5l0.1,0.5l0.1,0.7l0.1,0.2l0.4,0.1h0.5l0.5-0.1
			l0.3-0.3L12.6,29.1L12.6,29.1z"/>
	</g>
	<path class="st0" d="M20.6,29h0.1v0.2h-0.1V29z M23.7,32.4l0.1,0.2l0.3-0.2l0.1-0.4h0.2H25l-0.1,0.2v0.3l0.4,0.7V34h-0.2l-0.2-0.2
		L24.6,34l0.1,0.3l0.3,0.2l0.4,0.1l0.4,1.2v0.4l-0.4,0.7l-0.3,0.3l-0.3,0.2H24l-0.3,0.1l-0.4-0.2l-1.1,0.4l-0.4-0.2l-0.6-1.3
		l0.1-3.3l-0.3-2l0.2-0.6l-0.3-1.1l0.2-0.4v-0.7l0.2-2.1l-0.1-0.8L21,24.9l0.2-0.5L21.1,24v-0.4l0.2-0.6l0.8-0.4l0.5,0.3h3.2
		l0.7,0.2l0.6-0.2l0.4,0.1l0.3-0.2l1.6,0.3l1-0.1l0.4,0.4l0.3-0.4h1.2l0.3-0.2L33,23l1.2-0.2l0.6,0.2l0.3-0.2H36l0.1-0.1l0.7,0.2
		h0.8l1.6-0.3v0.3l0.3-0.2h0.2l0.1,0.2l0.8,0.7l0.2,0.9l-0.3,0.6l-0.2,1.7l0.2,1.7l-0.1,0.4V32l-0.1,1.6l0.1,0.7L40.3,36l-0.2,1
		L40,37.2l-0.3,0.1l-1.5-0.2l-0.8,0.1l-0.5-0.6l-0.2-0.9v-0.2l-0.3-0.7l0.3-2.1l0.3-0.2v-0.4l-0.6-0.4v-1l0.1-0.7l0.1-0.1l-0.2-0.2
		L36,29.6l0.1-0.6v-0.2l0.4-0.2L36.4,28l0.5-0.3l-0.1-0.1h-0.3L36,28.1h-0.2l-0.1-0.4v-0.3l-0.1-0.1l-0.2,0.1L35,27.9l-0.4-0.1
		L33.5,28l0.1,1.3l-0.1,0.4h-0.2l-0.1-0.3v0.3l-0.9-0.3l0.1-0.2l0.2-0.1l0.1-0.2l-0.2-0.1L32,29.2l-0.2-0.1l0.2,0.3v0.4v0.7
		l-0.2-0.3l-0.5-0.3v-0.3l0.3-0.1l-0.1-0.2l-0.2-0.1L31,29.4v-0.2l0.1-0.1l0.2,0.1v-0.4l-0.2-0.3v-0.2l0.2-0.2l-0.2-0.5l0.2,0.1
		l0.2,0.4l-0.2,0.5l0.7,0.2h0.2l0.2-0.3L32,28.2v-0.3l-0.2-0.5l0.1-0.2l0.2,0.2v0.2l0.7,0.6v-1.1l0.1-0.2l0.1-0.3l0.1-0.2l0.4,0.2
		V27l0.1,0.4l0.2-0.1L34,27v-0.2h0.2l0.4-0.3h0.2l0.4-0.7l-0.1-0.1l-0.5,0.1v-0.4l-0.2-0.5l0.3,0.1v0.2h0.7V25l-0.2-0.2l-0.6-0.1
		v-0.4l-0.3,0.1l-0.2-0.1v0.2L34,24.2l-0.6,0.4L33.2,25l0.4,0.7l0.1,0.6l-0.2-0.1l-0.4-0.4l0,0.2L33,25.7h-0.2l0.2-0.8v-0.6
		l-0.1,0.1v0.4L32,24.7v-0.4l0.2-0.2L32,24l-0.3-0.4v1.3l-0.3,0.2l-0.7-0.2l-0.3-0.6H30l0.3,0.8h-0.4l0.1,0.4l-0.6,0.1V26l0.1,0.2
		l0.4-0.2l0.4,0.1l0.1-0.4v-0.5l0.3,0.2v0.5l-0.3,0.6l-0.1-0.2h-0.1L29.6,27l-0.3,0.3l-0.7-0.2l0.9-0.6v-0.2L29,26.5l-0.7-0.7
		L28,26.1l0.1,0.2l0.4,0.2l0.1,0.2v0.2l-0.4-0.1l-0.4,0.1v0.2l0.3,0.4v0.4l-0.4-0.1L26.4,27l-0.1,0.6l-0.8,0.8v0.2l0.2,0.2L25.4,29
		l-0.9,0.2v0.3l0.4,0.5l0.1,0l0.1-0.2v-0.3l0.2-0.1v0.2L25.2,30l0.5,0.2V31h-0.3l-0.2-0.6H25l-0.2,0.1l0.1,0.4l-0.1,0.5l-0.1-0.1
		l-0.1-0.6l-0.1-0.1l-0.2,0.3L24,31.1l0.7,0.6l-0.9,0.7H23.7z M22.1,27.8v-0.3h-0.2v0.3H22.1z M21.9,29.9l0.7,0.3v-0.7h-0.4L22,29.8
		L21.9,29.9z M22.5,28.2h-0.3v0.2l0.1,0.1h0.1L22.5,28.2z M22.4,33h0.2l0.2-0.3l0.1-0.4l-0.2-0.2L22.5,32l-0.2,0.7L22.4,33z
		 M22.5,31.5l0.1-0.3l-0.2,0.1v0.2L22.5,31.5z M22.8,34.4V34h-0.3v0.3l0.1,0.1L22.8,34.4z M22.8,33.2h0.3v-0.3L23,32.8V33L22.8,33.2
		z M23.3,31.6L23.1,32v0.4l0.1,0.1l0.6-1.2l-0.1-0.2h-0.3l-0.3,0.3L23,30.9h-0.1V31l0.3,0.4L23.3,31.6z M23.1,30.1l0.1-0.2v-0.5H23
		V30L23.1,30.1z M23.6,28l-0.5-0.2l0.3,0.3L23.6,28z M23.7,34.2v-0.3L23.4,34l0.1,0.2H23.7z M23.5,29.5l0.1,0.2v0.9l0.1,0.2l0.2-0.4
		v-1.3h-0.3L23.5,29.5L23.5,29.5z M23.7,28.4l0.2-0.1l-0.2-0.2V28.4z M23.8,27.6l0.4,0.2l0.2-0.6L24,27.1l-0.1,0.4L23.8,27.6z
		 M24.2,26.3h0.2l0.1-0.1V26l-0.2,0.1L24.2,26.3z M24.6,26.6v-0.2h-0.3v0.2l0.2,0.1L24.6,26.6z M25,28.6l0.1-0.2v-0.2L24.8,28h-0.2
		v0.3l0.2,0.4L25,28.6z M24.6,33.1h0.2l0.1-0.2l-0.3-0.1C24.6,32.8,24.6,33.1,24.6,33.1z M33.6,30.5v0.7l-0.3,0.2l0.2,0.3v0.5h-0.2
		L33,31.9L32.8,32l0.3,0.2l0.3,0.5V33h-0.2l-0.3-0.4v0.2l0.2,0.3l0.2,0.1l0.2,0.6l0.1,0.1l-0.1,0.4l-0.3,0.5l0.1,0.1l0.2-0.3
		l-0.1,2.6l0.2,0.6l-0.1,0.9l0.2,0.8l-0.1,1.2l-0.2,0.8l0.2,1.6l-0.1,0.8l0.1,0.8v0.4l-0.1,0.2v1.6l0.1,1.5v1.9L33,50.7l-0.1,0.2
		h0.2l0.3-0.2l0.2,0.8v0.4l-0.2,0.4L33.1,52l-0.2,0.2l0.2,0.3l0.7,0.4l0.2,0.3l0.1-0.1V53l0.5,0.2l1.1-0.3l0.8,0.2l0.3,0.2l0.4,0.7
		v0.6L37.1,55l0.1,1.2l-0.5,1.9l-1.8,0.2l-0.3-0.2l-0.7,0.2L32.6,58l-0.4,0.3l-0.4-0.1l-1.7,0.1l-0.8-0.1l-0.7,0.1l-0.3,0.2
		l-0.4-0.1l-1.6,0.2l-0.7-0.2l-0.1-0.2L25,56.7v-1.2l0.1-0.2l-0.2-0.5v-0.4l0.3-0.6l0.3-0.2l0.8-0.3l0.9-0.1l0.7,0.2l0.2-0.1
		l0.2-0.3l0.2-1.6L28.2,51l0.1-0.4l0-1.6l0.1-2.3l-0.3-2.4l0.1-0.9l-0.1-1.2l0.2-0.6l-0.2-1.2l-0.2-0.5l0.1-0.4v-1.4l0.1-0.2
		l0.1-0.7L28,35.9v-0.4l0.2-0.4l-0.1-0.8l0.1-0.2L28,33.5l0.2-0.3L28,33.1v-0.2l0.2-0.3l0.5-0.4L28.6,32h-0.4v-0.8l0.1-0.4l0.5,0.3
		v0.2l0.5-0.3l0.4,0.8V32l-1,0.7L28.6,33l0.1,0.4l0.4-0.1l0.3-0.7l0.2-0.1l0.1,0.6l0.1,0.1l0.3-0.2v-0.2L30,32.6l0.1-0.3l0.1-0.1
		h0.3l-0.2,0.5h0.2l0.1-0.1l0.2,0.1v0.2l-0.1,0.5l0.1,0.1l0.2-0.1l-0.1-0.3V33l0.2,0.2L31,32.8l-0.6-0.5l0.1-0.3v-0.6l-0.3,0.4H30
		l-0.3-0.5l0.6-0.2l0.1-0.2h-0.5l0.1-0.1l0.1-0.2l0.3-0.1H31l0.3,0.9l0.6-0.3h0.4v-0.2L32,30.7v-0.2l0.4-0.1L33,30h0.3L33.6,30.5z
		 M25,35.3V35h-0.2v0.3H25z M25,27.8h0.1l0.1-0.2H25V27.8z M25.4,25.6l-0.2-0.3v0.2L25.4,25.6z M25.3,31.4l0.2,0.1l0.2,0.4l-0.1,0.7
		l-0.1,0.1l-0.2-0.8v-0.2V31.4z M25.1,36.1v0.2l0.1-0.1V36L25.1,36.1z M25.3,27.1l0.3,0.2l0.1-0.3h-0.3L25.3,27.1z M25.6,27.8h0.3
		v-0.2l-0.3-0.2V27.8z M25.7,25.4l0.2,0.2v0.2l0.4,0.1l0.5-0.1v-0.3l-0.4,0.2l-0.1-0.5h-0.5L25.7,25.4z M27,26v0.3h0.2l0.1-0.3
		l-0.2-0.1L27,26z M27.3,54.9l0.1-0.3l-0.2,0.1v0.2H27.3z M27.9,54.6v-0.3h-0.3v0.2L27.9,54.6z M28.5,24.9l0.4,0.7l0.1-0.2l-0.2-0.6
		l-0.1,0.1l-0.2-0.2h-0.3l0.1,0.3L28.5,24.9z M30.7,27.1l0.1,0.4l-0.1,0.4l-0.3,0.3L30.1,28l-0.2-0.4l-0.2,0.2l0.1,0.4l0.3,0.3
		l-0.5,1.1L29.2,30l0.2,0.6L29,30.9l-0.1-0.1l-0.2-0.7l-0.3,0.1h-0.2V30l0.1-0.8v-0.3h0.2l0.6,0.5l0.3-0.2l0.3-0.8l-0.4,0.4
		l-0.4,0.1v-0.3l-0.3,0.2l-0.1-0.2v-0.4l0.2-0.4l0.4,0.2L29,28.5l0.1,0.1l0.5-0.3v-0.2l-0.3-0.2l1.5-0.3L30.7,27.1z M28.3,24.5
		l0.3-0.2v-0.4l-0.3-0.1l-0.1,0.4v0.3H28.3z M28.4,35.3l0.1-0.1l-0.1-0.3l-0.1,0.2L28.4,35.3z M28.7,55.1v-0.4l-0.1-0.2h-0.2V55
		l0.1,0.1C28.5,55.1,28.7,55.1,28.7,55.1z M28.6,56l0.1-0.4l-0.2-0.1l-0.1,0.2v0.2L28.6,56z M28.6,33.8h0.2v-0.2l-0.2-0.1V33.8z
		 M28.6,31.6l0.2-0.1l0.4,0.1l0.2-0.1l-0.3-0.1l-0.4,0.1L28.6,31.6z M28.9,52.8v-0.3l-0.1-0.1v0.3L28.9,52.8z M28.7,54.2h0.2L29,54
		h-0.2L28.7,54.2z M28.9,34l0.8,0.4l0.3-0.2v-0.5l0.2-0.4l-0.8-0.1l-0.3,0.6L28.9,34z M29,49.6h0.2l0.3,0.1l0.1-0.2l-0.3-0.1v-0.2
		H29v0.3L29,49.6z M29.3,24.9l0.1-0.1v-0.4l-0.1-0.1l-0.2,0.5L29.3,24.9z M29.3,55.5v0.2V55.5L29.3,55.5z M29.8,33.6v0.3L29.7,34
		l-0.2-0.1v-0.2h0.1L29.8,33.6z M29.5,46.6l0.3-0.2v-0.2h-0.3l-0.1,0.2L29.5,46.6z M29.7,55.1v-0.2l-0.1-0.1h-0.2V55l0.1,0.1H29.7z
		 M29.7,56.2h0.4l-0.3-0.5l-0.2-0.1l-0.1,0.1h0.1v0.2L29.7,56.2z M29.6,51.4l0.4-0.2l-0.2-0.1l-0.1,0.1L29.6,51.4z M29.7,53.1
		l0.6-0.3H30l-0.2-0.2L29.7,53.1L29.7,53.1z M30.2,28.8l0.1,0.2v0.3l-0.2,0.1l-0.3-0.1L30.2,28.8z M29.9,35.4h0.2l0.1,0.1l-0.1-0.3
		L30,35.1L29.9,35.4z M30,56.7l0.1-0.3h-0.2v0.1L30,56.7z M30.1,49.3v-0.4L29.9,49v0.2L30.1,49.3z M30.6,29.8L30.5,30h-0.1l-0.1,0.3
		l-0.2,0.1v-0.5l0.4-0.1H30.6z M30.2,23.8v0.4l0.6-0.2l0.1-0.2l-0.1-0.2l-0.2-0.1l-0.3,0.1h-0.1V23.8z M30.2,40.2l0.2-0.1V40h-0.2
		V40.2z M30.2,42.9h0.2l0.1-0.1h-0.2L30.2,42.9z M30.2,53.4l0.1-0.1l-0.1-0.1V53.4z M30.3,33.5l0.4,0.5v0.2h0.2l0.3,0.3l0.3,0.7h0.1
		L32,35l-0.2-0.1l-0.3-0.6V34l-0.7-0.3l0.1-0.1v-0.4l-0.3,0.4L30.3,33.5z M30.4,26.5h0.3v0.2l-0.2,0.1v-0.2L30.4,26.5z M30.4,52.1
		l0.1,0.1l0.3-0.2l0.1,0.2h0.4l0.1-0.3v-0.4L30.5,52L30.4,52.1z M30.4,56.8l0.2,0.4H31l0.2,0.3h0.1l0.1-0.2l0-0.3l-0.2,0.2H31
		l-0.1-0.6l0.2-0.3l0.6,0.1l-0.1-0.3l-0.3-0.2H31l-0.3,0.2l-0.2,0.5v0.2H30.4z M30.5,45l0.4,0.1l0.1-0.2l-0.4-0.2l-0.1,0.2V45z
		 M30.6,35.1H31l-0.1-0.5h-0.2l-0.1,0.3L30.6,35.1z M30.6,28.2l0.2,0.1v0.4l-0.2-0.1l-0.1-0.2v-0.2H30.6z M31,47.8l-0.4-0.3l0.2,0.4
		L31,47.8z M30.8,36.5l0.3-0.1v-0.2h-0.2l-0.1,0.1C30.8,36.3,30.8,36.5,30.8,36.5z M31.2,53.5v0.2l0.1,0.4L31,54.4l-0.1,0.2l0.4-0.1
		l0.4-0.7l-0.3-0.2h-0.2V53.5z M30.9,40.1l0.2,0.2l0.1-0.3L31,39.8L30.9,40.1z M31.1,25.5l0.3,0.4L31,26v-0.3L31.1,25.5z M31.4,26.7
		l0.1,0.2l-0.2,0.4h-0.2v-0.4l0.1-0.2H31.4z M31.6,31.6l-0.1,0.2l-0.4,0.1v0.3l0.1,0.2l0.1-0.2h0.1l0.5,0.1l0.2-0.2l0.2,0.6v0.4h0.2
		v-0.7l0.1-0.2L32.4,32l0.2-0.1v-0.3l-0.2-0.4l-0.3,0.3l-0.3,0.1H31.6z M31.2,46.7h0.4l-0.2-0.3l-0.1,0.1L31.2,46.7z M31.2,50.6h0.1
		v-0.2h-0.1V50.6z M31.5,52.9l0.2-0.2l-0.1-0.4l-0.1,0.3l-0.1,0.1L31.5,52.9z M31.6,37.7v-0.3l-0.2-0.1v0.2L31.6,37.7z M31.6,44.7
		L31.6,44.7l-0.1,0.4V45L31.6,44.7z M31.6,30.5h0.1v0.2h-0.1V30.5z M31.6,52v0.2l0.2-0.1v-0.2L31.6,52L31.6,52z M31.7,25l0.4,0.1
		l0.5,0.5h-0.1l-0.8-0.2C31.7,25.4,31.7,25,31.7,25z M32.1,34.2l0.3-0.4v-0.2l-0.1,0.1l-0.5-0.1l0.1,0.4L32.1,34.2z M31.7,34.5h0.2
		v0.2l0.1,0.1v-0.3l-0.2-0.2L31.7,34.5z M31.8,26.6l0.1,0.1v0.2v-0.1L31.8,26.6z M31.8,53v0.3l0.1,0.2l0.3-0.2V53l-0.1-0.1L32,53
		H31.8z M32.1,25.8l0.5,0.3l-0.2,0.1l-0.2-0.1l0-0.1L32.1,25.8z M32.3,51.7H33L32.7,51v0.2l-0.3,0.3L32.3,51.7z M32.4,52.2v-0.3
		l-0.1-0.1V52L32.4,52.2z M32.3,54.1l0.6-0.2v-0.2l0.2-0.5l-0.4-0.1l-0.3,0.7L32.3,54.1z M32.7,36.7v-0.2h-0.2l0.1,0.3L32.7,36.7z
		 M32.8,35.7v-0.2l-0.1-0.2l-0.2-0.1v0.3L32.8,35.7z M33.1,26.1l-0.2,0.2v-0.2H33.1z M33.1,34.2v-0.4h-0.2V34l0.1,0.1L33.1,34.2z
		 M32.9,28.9h0.2v-0.2L33,28.6L32.9,28.9L32.9,28.9L32.9,28.9z M33,36.1l0.2-0.3l-0.3-0.1L33,36.1L33,36.1z M33.2,23.9l0.4-0.1
		l0.1-0.1l-0.3-0.3l-0.2,0.2V23.9z M33.5,54.2l0.6-0.3l-0.8-0.2l0.1,0.4L33.5,54.2z M33.4,56.2L33.4,56.2v-0.3V56.2z M33.6,23.5H34
		l0.1,0.4h0.5l0.2-0.4h-0.4L33.5,23v0.2L33.6,23.5z M33.9,55.8l0.1-0.2v-0.2h-0.2l-0.1,0.2v0.2H33.9z M33.8,33.8L33.8,33.8l0.1,0.3
		L33.8,34V33.8z M34.7,25.6l-0.1,0.2h-0.5l-0.2-0.4l0.2-0.1h0.3l0.1,0.1L34.7,25.6z M34.1,24.6h0.2v0.2V25h-0.2v-0.2V24.6z
		 M34.8,27.5l0.1-0.3l-0.2-0.1v0.2L34.8,27.5z M35.5,23.8v-0.2l-0.3-0.1L35.5,23.8L35.5,23.8z M35.8,26.8h0.6l0.2-0.3v-0.2l-0.4,0.1
		l-0.3,0.2L35.8,26.8L35.8,26.8z M35.9,24.6l0.2,0.4l0.2-0.2l0.1-0.4h-0.2L35.9,24.6z M36.1,26.2v-0.3l-0.3-0.2V26l0.1,0.2H36.1z
		 M37.2,27.1H37v-0.2L36.3,27l0.3,0.2H37L37.2,27.1z M36.6,25.6h0.3v-0.2h-0.2L36.6,25.6z M37.4,25.5l-0.2,0.2l0.2,0.1l0.4,0.7
		l0.1-0.4v-0.7L37.7,25l0.1-0.1H38l0.1-0.2l-0.3-0.2h-0.1L37.4,25v0.2V25.5z M37.4,27.8l0.3-0.2l-0.3-0.3l-0.1,0.1l0.1,0.1V27.8z
		 M37.2,30.1l0.1,0.1l0.1-0.1L37.3,30L37.2,30.1z M37.4,31.2v-0.1l-0.1-0.2L37.4,31.2z M37.4,24.3l0.3-0.2v-0.2h-0.2l-0.1,0.2V24.3z
		 M37.4,29.7l0.2,0.1h0.2v-0.3l-0.1-0.1l-0.2,0.1L37.4,29.7z M38.1,26.5h0.3l0.4-0.4v-0.2l-0.2-0.2l-0.3,0.6L38.1,26.5z M38.3,31.6
		h0.3v-0.3h-0.2L38.3,31.6L38.3,31.6L38.3,31.6z M38.6,33.4l0.2-0.1l0.1-0.5h-0.2l-0.1,0.4V33.4z M39.1,26.9v-0.4L39,26.4l-0.1,0.2
		L39.1,26.9L39.1,26.9z"/>
	<path class="st0" d="M43.9,57.1L43.9,57.1l0.1,0.2h-0.1V57.1z M62.2,30.1l0.2,0.1l0.2-0.1l0.1,0.1l-0.5,0.6v0.9l0.1,1.5l-0.1,0.4
		l0.1,0.4l0.1,0.8l0.1,0.3l-1,0.9l-0.8,0.3L60,36.1l-0.4,0.2l-0.5-0.1L59,36.3l-1.2-0.5l-0.3-0.3l-0.1-0.4L57,34l-0.1-0.2l0.1-1.3
		l0.1-0.2L57,31.1v-0.4l0.2-0.3l-0.1-1.1l0.2,0.1l0.3,0.7l0.2,0.1L58,30v-0.6l0.3-0.2v-0.4l-0.1-0.2h-0.3l-0.2,0.5l-0.6-0.6v-0.2
		l0.2-0.5l-0.8-0.3l-0.3-0.2L56,27.1l-0.2,0.1v0.6l-0.2-0.1L55.1,27l-0.3-0.3l-0.1,0.1v0.4l-0.9,0.4v-0.4l0.3-0.5l-0.3,0.1l-0.1-0.2
		l-0.3,0.8l-0.3,0.2l-0.8,0.1L52,27.9l-0.1-0.3l0.2-0.3h0.4V27l0.3-0.5L52,26.4l-0.3,0.1l-0.3,0.2v-0.4l-0.2-0.6l-0.1-0.1L51,25.8
		l0.1,0.4l-0.2,0.2l0.3,0.4l-0.1,0.6l0.4,0.4l0.1,0.4h0.5v0.6h-0.4l-0.3-0.3l-0.2,0.3h-0.1l0.1,0.3v0.8l-0.3,0.2L50.5,30l-0.4,0.2
		l-0.2-0.3L49.8,30l-0.1,0.4l0.8,0.1l0.8-0.3l0.4-0.6l0.1-0.1l0.1,0.4l-0.2,0.8V31l-0.2,0.2v0.2l0.1,0.2L50.9,32l-0.1,0.6l0.3,0.3
		l0.1-0.1v-0.5l0.2,0.1l0.1,0.3v0.7L51,33.8l0.3,0.2l0.1,0.2l0.1,3.3l0.3,0.7l0.2,0.3h2l0.2-0.1l0.1-0.2l0.5,0.4h0.5l0.4,0.2
		l1.1,1.1l-0.1,1.7l-0.1,0.8l-0.1,0.3l-0.2,0.2l-1.2-0.3l-0.2,0.3l-0.2,1l-0.1-0.1v-0.9L54.3,43L53,42.8l-0.4,0.1l-0.3,0.3L52,43
		l-0.1,1.2l-0.1,0.4l0.1,0.7L51.7,46l0.1,3.3v0.4l-0.2,0.8l0.2,0.7v1.7l0.1,0.8l0.2,0.4l0.3,0.3l0.5-0.2l0.3,0.2l0.8-0.1l0.5,0.1
		l0.3,1.1v0.9L54.6,57l-0.5,0.5L52.5,58l-0.6-0.2L50.2,58l-1.5-0.1l-2.3,0.3l-0.8-0.1l-0.8-0.3h-0.4l-0.2-0.6l-0.1-0.8l0.1-0.8
		l0.2-0.6l0.6-0.5l0.6-0.1h0.2v0.4l0.1-0.2l0.1,0.1l0.6-0.4l0.1-0.2l-0.1-0.6l0.6-0.3V53l-0.4-1.5l0.2-0.6l-0.2-0.6l0.2-1.6
		l-0.1-1.1l0.2-1L47,46.5l0.1-3.2v-1.6L47,40.9l0.2-0.6l-0.3-0.7l0.3-2.2L47,36.1l0.1-0.8l0.1-0.3v-0.5l0.1-0.4v-0.8l-0.1-0.4l0.1-1
		L47,31.6l0.1-0.8v-1.7l0.1-0.9L47,27.9v-1.2l-1.6-1.1L44.9,24v-0.4l0.1-0.4l0.3-0.3l0.2,0.1l0.1,0.2l0.3-0.4l3.2,0.1l3.2-0.1h0.8
		l1.5,0.3l2.1,0.2l1.5-0.4H59l0.4,0.2h0.8l0.8,0.2l0.6,0.4l0.2,0.3v0.8l0.2,1.7l0.2,1.5v0.7l0.1,1.2L62.2,30.1z M47.2,28.2
		L47.2,28.2l0.1-0.2h-0.1V28.2z M47.8,30.6l0.2-0.1v-0.2l-0.1-0.2l-0.1,0.3L47.8,30.6z M47.8,31.8H48v-0.1l-0.1-0.2L47.8,31.8z
		 M48,29.7l0.2,0.3l0.2-0.1v-0.3l-0.3-0.1L48,29.7z M48.2,25.1v0.2l0.2-0.1L48.3,25L48.2,25.1z M49.2,27.5H49l-0.4,0.4h1.6l-0.6,0.6
		H49l-0.3-0.1l-0.4,0.5V29l1.4-0.6l0.2,0.1l0.3-0.1l0.1-0.2l-0.2-0.1l0.2-0.2l0.1-0.4l-0.3,0.2v-0.2l-1-0.5v0.3v0.2H49.2z
		 M48.9,39.1l-0.1-0.3L48.9,39.1L48.9,39.1z M48.8,38v-0.2l-0.1-0.2v0.2L48.8,38z M49.1,26.4l0.2-0.5h-0.6v0.3L49.1,26.4z
		 M48.9,30.7l0.2,0.2l-0.2,0.6l0.1,0.4l0.1,0.1l0.2-0.6L49.1,31l0.3-0.3l-0.2-0.1v-0.4H49l-0.1,0.3V30.7z M49.3,36.5l0.2-0.1v-0.3
		l-0.3,0.1v0.1L49.3,36.5z M49.2,41.2h0.2V41h-0.2V41.2z M49.6,26.6h0.2v-0.2h-0.2V26.6z M49.8,35.8v-0.4h-0.1L49.8,35.8L49.8,35.8z
		 M49.7,32.9h0.2v-0.2h-0.2V32.9z M50,39.7l-0.3-0.1v0.2l0.1,0.1L50,39.7z M50.1,27.1h0.4v-0.2L50.4,27v-0.2L50,26.9L50.1,27.1z
		 M50.2,42.8L50,42.5v0.2L50.2,42.8z M50.3,42.3l-0.1-0.2l-0.1,0.3L50.3,42.3z M50.1,43.6v0.2l0.4-0.1l0.1-0.3l-0.3,0.1L50.1,43.6z
		 M50.3,30.9l0.4,0.5v-0.2l0.2-0.4l-0.2-0.1L50.6,31L50.3,30.9z M50.3,34.7L50.3,34.7l0.1-0.2h-0.1V34.7z M50.7,42.1l-0.1-0.4
		l-0.2-0.1v0.2l0.1,0.3H50.7z M50.6,37.2L50.6,37.2l0.1-0.2h-0.1V37.2z M51.6,28.9h-0.5l0.1-0.2l0.3,0.2H51.6z M51.4,38.9l0.3-0.2
		v-0.2l-0.3-0.1v0.2V38.9z M51.7,24.8l0.4,0.4v-0.7l-0.2-0.3l-0.1,0.4L51.7,24.8z M52.2,27.1l-0.5-0.2v-0.2h0.1l0.3,0.2L52.2,27.1z
		 M52.6,25.9l-0.2-0.4h-0.2v0.3l0.2,0.2L52.6,25.9z M52.6,23.6l0.1,0.2l0.1-0.4h-0.2L52.6,23.6z M52.7,27.1l0.1,0.1l0.1-0.1v-0.2
		h-0.1L52.7,27.1z M53,39.8h0.3v-0.2l-0.1-0.1l-0.1,0.1L53,39.8z M53.7,26.4v-0.2l-0.2-0.5v-0.3l-0.4-0.1l0.1,0.6l0.2,0.3L53.7,26.4
		z M53.5,23.6V24l0.2-0.1l0.3-0.5l-0.2-0.1l-0.1,0.1L53.5,23.6z M53.7,25.3v0.2h0.6l-0.4,0.9H54l0.1,0.4l0.1,0.2l0.3-0.4l-0.3-0.1
		l-0.1-0.2l0.3-0.2l0.4-0.5v-0.2L54.7,25l-0.2-0.2L54.4,25l-0.5,0.2L53.7,25.3z M53.7,40.4h0.2v-0.2l-0.1-0.1v0.2v0.1H53.7z
		 M53.9,24.7h0.2v-0.2h-0.2V24.7z M54.1,24.4h0.2v-0.2h-0.1L54.1,24.4z M56.1,25.8L55,25.5V26l0.2-0.1l0.6,0.2L56,26L56.1,25.8z
		 M55.9,25.4v-0.2l0.2-0.2v-0.2L55.6,25v-0.1v0.2L55.9,25.4z M56.6,26.6v-0.2l-0.2-0.2l-0.1,0.2l0.1,0.2H56.6z M57.5,31.4l0.1,0.1
		l0.2-0.3l0.2-0.1v-0.3l-0.3-0.2l-0.2,0.6V31.4z M57.7,26.6l0.3,0.2v0.3l-0.4,0.1l-0.1,0.2l0.1,0.3l0.2,0.1l0.3-0.3l0.6,0.5l0.4,0.1
		v-0.4l-0.5-0.3L58.5,27v-0.3h-0.4L57.7,26.6v-0.3V26.6z M58.1,25.5l-0.3-0.3h-0.2l0.2,0.4l0.1,0.1L58.1,25.5z M58,27.1h0.2v0.2H58
		V27.1z M58,32.6l0.4,0.1v-0.2l-0.2-0.2l-0.1,0.2L58,32.6z M58.8,26.3l-0.2-0.4h-0.3l0.1,0.4h0.2H58.8z M58.3,30l0.4,0.4V30
		l-0.2-0.1l0.3-0.1v-0.2h-0.2l-0.2,0.3L58.3,30z M58.5,31.4l0.2,0.2l-0.2,0.1L58.4,32l0.1,0.1l0.4,0.1V32l-0.2-0.2l0.2-0.2v-0.2
		l-0.1-0.1L58.5,31.4L58.5,31.4z M58.8,28.3l0.4,0.1L59.1,28h-0.2v0.2L58.8,28.3z M59.3,26.5l-0.1-0.4h-0.1v0.2L59.3,26.5
		C59.2,26.5,59.3,26.5,59.3,26.5z M59.2,29.7v0.2l0.3,0.1v-0.2l-0.1-0.2L59.2,29.7z M59.4,27.8l0.4,0.7l0.2-0.3L59.9,28v-0.6
		l-0.1-0.1L59.4,27.8z M59.5,31.7h0.2l-0.1-0.3l-0.1,0.1L59.5,31.7z M59.6,29.4h0.2v-0.2l-0.1-0.1v0.3H59.6z M59.9,33.7h-0.2
		l-0.1,0.1l0.1,0.1L59.9,33.7z M60.3,27l-0.1-0.5H60l-0.2-0.3v0.4l0.2,0.3L60.3,27z M59.9,30.5h0.2l0.1-0.2H60L59.9,30.5z M60,31.5
		l0.1-0.3l-0.2,0.1v0.2L60,31.5z M60.3,28.6V29h0.2l0.2-0.4h-0.2H60.3z M60.4,25.5h0.2l0.1-0.4l-0.2,0.1L60.4,25.5L60.4,25.5z
		 M61.6,30.3L61.6,30.3l0.1-0.2h-0.1V30.3z"/>
	<g>
		<path class="st1" d="M79.8,35.9h-2.3V22.8h2.3V35.9z"/>
		<path class="st1" d="M85.8,26.2l0.1,1c0.7-0.8,1.6-1.2,2.8-1.2c1.3,0,2.2,0.5,2.7,1.5c0.7-1,1.7-1.5,3-1.5c1.1,0,1.9,0.3,2.4,0.9
			s0.8,1.5,0.8,2.6v6.4h-2.2v-6.3c0-0.6-0.1-1.1-0.4-1.4s-0.7-0.4-1.3-0.4c-0.5,0-0.9,0.1-1.2,0.4c-0.3,0.3-0.5,0.6-0.7,1v6.7h-2.2
			v-6.4c0-1.1-0.6-1.7-1.7-1.7c-0.9,0-1.5,0.4-1.9,1.1v7h-2.2v-9.7H85.8z"/>
		<path class="st1" d="M109.5,31.1c0,1.5-0.3,2.7-1,3.6s-1.6,1.3-2.7,1.3s-1.9-0.3-2.6-1v4.6H101V26.2h2l0.1,1
			c0.6-0.8,1.5-1.2,2.6-1.2c1.2,0,2.1,0.4,2.8,1.3c0.7,0.9,1,2.1,1,3.7V31.1z M107.3,30.9c0-1-0.2-1.7-0.6-2.3
			c-0.4-0.6-0.9-0.9-1.7-0.9c-0.9,0-1.5,0.4-1.9,1.1v4.3c0.4,0.8,1,1.1,1.9,1.1c0.7,0,1.2-0.3,1.6-0.8
			C107.1,32.9,107.3,32.1,107.3,30.9z"/>
		<path class="st1" d="M117.7,28.2c-0.3,0-0.6-0.1-0.9-0.1c-1,0-1.7,0.4-2,1.1v6.6h-2.2v-9.7h2.1l0.1,1.1c0.5-0.8,1.3-1.3,2.2-1.3
			c0.3,0,0.6,0,0.8,0.1L117.7,28.2z"/>
		<path class="st1" d="M119.6,30.9c0-1,0.2-1.8,0.6-2.6c0.4-0.8,0.9-1.3,1.6-1.8c0.7-0.4,1.5-0.6,2.4-0.6c1.3,0,2.4,0.4,3.2,1.3
			c0.8,0.8,1.3,2,1.3,3.4v0.5c0,1-0.2,1.8-0.6,2.6c-0.4,0.8-0.9,1.3-1.6,1.7S125,36,124.1,36c-1.4,0-2.5-0.5-3.3-1.4
			S119.6,32.5,119.6,30.9C119.6,31,119.6,30.9,119.6,30.9z M121.8,31.1c0,1,0.2,1.8,0.6,2.3c0.4,0.6,1,0.8,1.7,0.8s1.3-0.3,1.7-0.9
			c0.4-0.6,0.6-1.4,0.6-2.5c0-1-0.2-1.8-0.6-2.3c-0.4-0.6-1-0.9-1.7-0.9s-1.3,0.3-1.7,0.8C122,29.1,121.8,30,121.8,31.1z"/>
		<path class="st1" d="M134.5,23.8v2.4h1.7v1.6h-1.7v5.4c0,0.4,0.1,0.6,0.2,0.8c0.1,0.2,0.4,0.2,0.8,0.2c0.3,0,0.5,0,0.8-0.1v1.7
			c-0.5,0.1-1,0.2-1.4,0.2c-1.7,0-2.5-0.9-2.5-2.8v-5.5h-1.6v-1.6h1.6v-2.4L134.5,23.8L134.5,23.8z"/>
		<path class="st1" d="M141.3,27.2c0.7-0.8,1.6-1.2,2.7-1.2c2.1,0,3.1,1.2,3.1,3.5v6.3H145v-6.3c0-0.7-0.1-1.1-0.4-1.4
			s-0.7-0.4-1.3-0.4c-0.9,0-1.5,0.4-2,1.2v6.9h-2.2V22.1h2.2V27.2z"/>
		<path class="st1" d="M154.9,36c-1.4,0-2.5-0.4-3.4-1.3c-0.9-0.9-1.3-2-1.3-3.5V31c0-1,0.2-1.8,0.6-2.6c0.4-0.8,0.9-1.4,1.6-1.8
			c0.7-0.4,1.4-0.6,2.3-0.6c1.3,0,2.3,0.4,3.1,1.3c0.7,0.8,1.1,2,1.1,3.6v0.9h-6.3c0.1,0.8,0.3,1.4,0.8,1.9s1.1,0.7,1.8,0.7
			c1,0,1.8-0.4,2.4-1.2l1.2,1.1c-0.4,0.6-0.9,1-1.6,1.3C156.5,35.9,155.7,36,154.9,36z M154.7,27.7c-0.6,0-1.1,0.2-1.4,0.6
			c-0.4,0.4-0.6,1-0.7,1.7h4.2v-0.2c0-0.7-0.2-1.3-0.6-1.7C155.7,27.9,155.3,27.7,154.7,27.7z"/>
		<path class="st1" d="M167.6,35.9c-0.1-0.2-0.2-0.5-0.3-0.9c-0.7,0.7-1.5,1.1-2.5,1.1s-1.8-0.3-2.4-0.8c-0.6-0.6-0.9-1.2-0.9-2.1
			c0-1,0.4-1.8,1.2-2.4s1.9-0.8,3.3-0.8h1.3v-0.6c0-0.5-0.1-0.9-0.4-1.2c-0.3-0.3-0.7-0.5-1.3-0.5c-0.5,0-0.9,0.1-1.2,0.4
			s-0.5,0.6-0.5,0.9h-2.2c0-0.5,0.2-1,0.5-1.5s0.8-0.8,1.4-1.1s1.3-0.4,2-0.4c1.1,0,2,0.3,2.7,0.9s1,1.4,1,2.4v4.4
			c0,0.9,0.1,1.6,0.4,2.1V36L167.6,35.9L167.6,35.9z M165.2,34.3c0.4,0,0.8-0.1,1.2-0.3s0.7-0.5,0.9-0.8v-1.8h-1.2
			c-0.8,0-1.4,0.1-1.8,0.4c-0.4,0.3-0.6,0.7-0.6,1.2c0,0.4,0.1,0.8,0.4,1C164.4,34.2,164.7,34.3,165.2,34.3z"/>
		<path class="st1" d="M175.7,23.8v2.4h1.7v1.6h-1.7v5.4c0,0.4,0.1,0.6,0.2,0.8c0.1,0.2,0.4,0.2,0.8,0.2c0.3,0,0.5,0,0.8-0.1v1.7
			c-0.5,0.1-1,0.2-1.4,0.2c-1.7,0-2.5-0.9-2.5-2.8v-5.5H172v-1.6h1.6v-2.4L175.7,23.8L175.7,23.8z"/>
		<path class="st1" d="M184.7,36c-1.4,0-2.5-0.4-3.4-1.3c-0.9-0.9-1.3-2-1.3-3.5V31c0-1,0.2-1.8,0.6-2.6c0.4-0.8,0.9-1.4,1.6-1.8
			c0.7-0.4,1.4-0.6,2.3-0.6c1.3,0,2.3,0.4,3.1,1.3c0.7,0.8,1.1,2,1.1,3.6v0.9h-6.3c0.1,0.8,0.3,1.4,0.8,1.9s1.1,0.7,1.8,0.7
			c1,0,1.8-0.4,2.4-1.2l1.2,1.1c-0.4,0.6-0.9,1-1.6,1.3C186.2,35.9,185.5,36,184.7,36z M184.4,27.7c-0.6,0-1.1,0.2-1.4,0.6
			c-0.4,0.4-0.6,1-0.7,1.7h4.2v-0.2c0-0.7-0.2-1.3-0.6-1.7C185.5,27.9,185,27.7,184.4,27.7z"/>
		<path class="st1" d="M196.6,28.2c-0.3,0-0.6-0.1-0.9-0.1c-1,0-1.7,0.4-2,1.1v6.6h-2.2v-9.7h2.1l0.1,1.1c0.5-0.8,1.3-1.3,2.2-1.3
			c0.3,0,0.6,0,0.8,0.1L196.6,28.2z"/>
		<path class="st1" d="M85,52.4h-5.3v5.5h-2.3V44.8h8.3v1.8h-6v3.9H85V52.4z"/>
		<path class="st1" d="M93.5,50.2c-0.3,0-0.6-0.1-0.9-0.1c-1,0-1.7,0.4-2,1.1v6.6h-2.2v-9.7h2.1l0.1,1.1c0.5-0.8,1.3-1.3,2.2-1.3
			c0.3,0,0.6,0,0.8,0.1L93.5,50.2z"/>
		<path class="st1" d="M101.7,57.9c-0.1-0.2-0.2-0.5-0.3-0.9c-0.7,0.7-1.5,1.1-2.5,1.1s-1.8-0.3-2.4-0.8c-0.6-0.6-0.9-1.2-0.9-2.1
			c0-1,0.4-1.8,1.2-2.4c0.8-0.6,1.9-0.8,3.3-0.8h1.3v-0.6c0-0.5-0.1-0.9-0.4-1.2s-0.7-0.5-1.3-0.5c-0.5,0-0.9,0.1-1.2,0.4
			C98.2,50.3,98,50.7,98,51h-2.2c0-0.5,0.2-1,0.5-1.5c0.4-0.5,0.8-0.8,1.4-1.1s1.3-0.4,2-0.4c1.1,0,2,0.3,2.7,0.9
			c0.7,0.6,1,1.4,1,2.4v4.4c0,0.9,0.1,1.6,0.4,2.1V58h-2.1V57.9z M99.3,56.3c0.4,0,0.8-0.1,1.2-0.3c0.4-0.2,0.7-0.5,0.9-0.8v-1.8
			h-1.2c-0.8,0-1.4,0.1-1.8,0.4s-0.6,0.7-0.6,1.2c0,0.4,0.1,0.8,0.4,1C98.4,56.2,98.8,56.3,99.3,56.3z"/>
		<path class="st1" d="M109.1,48.2l0.1,1.1c0.7-0.9,1.7-1.3,2.8-1.3c2,0,3,1.2,3.1,3.5v6.4h-2.2v-6.3c0-0.6-0.1-1.1-0.4-1.4
			c-0.3-0.3-0.7-0.4-1.3-0.4c-0.9,0-1.5,0.4-2,1.2v6.9H107v-9.7H109.1z"/>
		<path class="st1" d="M121.7,53.7l-1,1v3.2h-2.2V44.1h2.2V52l0.7-0.9l2.7-3h2.6l-3.6,4l4,5.7h-2.5L121.7,53.7z"/>
		<path class="st1" d="M130.2,57.9v-8.1h-1.5v-1.6h1.5v-0.9c0-1.1,0.3-1.9,0.9-2.5c0.6-0.6,1.4-0.9,2.5-0.9c0.4,0,0.8,0.1,1.2,0.2
			l-0.1,1.7c-0.2,0-0.5-0.1-0.8-0.1c-1,0-1.6,0.5-1.6,1.6v0.9h2v1.6h-2v8.1H130.2z"/>
		<path class="st1" d="M143.1,57c-0.6,0.8-1.5,1.1-2.7,1.1c-1.1,0-1.8-0.3-2.4-0.9c-0.5-0.6-0.8-1.5-0.8-2.7v-6.3h2.2v6.3
			c0,1.2,0.5,1.8,1.5,1.8c1.1,0,1.8-0.4,2.1-1.1v-7h2.2v9.7h-2.1V57z"/>
		<path class="st1" d="M153.8,50.2c-0.3,0-0.6-0.1-0.9-0.1c-1,0-1.7,0.4-2,1.1v6.6h-2.2v-9.7h2.1l0.1,1.1c0.5-0.8,1.3-1.3,2.2-1.3
			c0.3,0,0.6,0,0.8,0.1L153.8,50.2z"/>
		<path class="st1" d="M159.7,45.8v2.4h1.7v1.6h-1.7v5.4c0,0.4,0.1,0.6,0.2,0.8c0.1,0.2,0.4,0.2,0.8,0.2c0.3,0,0.5,0,0.8-0.1v1.7
			c-0.5,0.1-1,0.2-1.4,0.2c-1.7,0-2.5-0.9-2.5-2.8v-5.5H156v-1.6h1.6v-2.4L159.7,45.8L159.7,45.8z"/>
	</g>
</g>
</svg>
